<svg viewBox="-50 -60 100 100" fill="rgb(0, 0, 0)" stroke="none" stroke-width="1px" opacity="1" fill-opacity="1" stroke-opacity="1" stroke-linecap="butt" stroke-linejoin="miter" font-family="-apple-system, &quot;system-ui&quot;, &quot;Segoe UI&quot;, Roboto, &quot;Noto Sans&quot;, Ubuntu, Cantarell, &quot;Helvetica Neue&quot;, sans-serif" font-size="19.04px" font-weight="400" xmlns="http://www.w3.org/2000/svg" width="640" height="640"><g transform="translate(0 0) scale(1)" aria-hidden="true" fill="rgb(0, 0, 0)" stroke="none" stroke-width="1px" opacity="1" fill-opacity="1" stroke-opacity="1" stroke-linecap="butt" stroke-linejoin="miter" font-family="-apple-system, &quot;system-ui&quot;, &quot;Segoe UI&quot;, Roboto, &quot;Noto Sans&quot;, Ubuntu, Cantarell, &quot;Helvetica Neue&quot;, sans-serif" font-size="19.04px" font-weight="400"><ellipse cx="0" cy="26" rx="40" ry="9" fill="rgb(0 0 0 / 0.18)" stroke="none" stroke-width="1px" opacity="1" fill-opacity="1" stroke-opacity="1" stroke-linecap="butt" stroke-linejoin="miter" font-family="-apple-system, &quot;system-ui&quot;, &quot;Segoe UI&quot;, Roboto, &quot;Noto Sans&quot;, Ubuntu, Cantarell, &quot;Helvetica Neue&quot;, sans-serif" font-size="19.04px" font-weight="400"></ellipse><polygon points="-30,-6 0,-20 30,-6 0,8" fill="#e7d9ba" stroke="none" stroke-width="1px" opacity="1" fill-opacity="1" stroke-opacity="1" stroke-linecap="butt" stroke-linejoin="miter" font-family="-apple-system, &quot;system-ui&quot;, &quot;Segoe UI&quot;, Roboto, &quot;Noto Sans&quot;, Ubuntu, Cantarell, &quot;Helvetica Neue&quot;, sans-serif" font-size="19.04px" font-weight="400"></polygon><polygon points="-30,-6 0,8 0,30 -30,16" fill="#cfb18a" stroke="none" stroke-width="1px" opacity="1" fill-opacity="1" stroke-opacity="1" stroke-linecap="butt" stroke-linejoin="miter" font-family="-apple-system, &quot;system-ui&quot;, &quot;Segoe UI&quot;, Roboto, &quot;Noto Sans&quot;, Ubuntu, Cantarell, &quot;Helvetica Neue&quot;, sans-serif" font-size="19.04px" font-weight="400"></polygon><polygon points="30,-6 0,8 0,30 30,16" fill="#a38460" stroke="none" stroke-width="1px" opacity="1" fill-opacity="1" stroke-opacity="1" stroke-linecap="butt" stroke-linejoin="miter" font-family="-apple-system, &quot;system-ui&quot;, &quot;Segoe UI&quot;, Roboto, &quot;Noto Sans&quot;, Ubuntu, Cantarell, &quot;Helvetica Neue&quot;, sans-serif" font-size="19.04px" font-weight="400"></polygon><polygon points="-30,-6 0,-20 30,-6 0,8" fill="#53300f" opacity="0.18" stroke="none" stroke-width="1px" fill-opacity="1" stroke-opacity="1" stroke-linecap="butt" stroke-linejoin="miter" font-family="-apple-system, &quot;system-ui&quot;, &quot;Segoe UI&quot;, Roboto, &quot;Noto Sans&quot;, Ubuntu, Cantarell, &quot;Helvetica Neue&quot;, sans-serif" font-size="19.04px" font-weight="400"></polygon><rect x="-24" y="2" width="7" height="6" rx="1" fill="#fff8ea" opacity="0.9" stroke="none" stroke-width="1px" fill-opacity="1" stroke-opacity="1" stroke-linecap="butt" stroke-linejoin="miter" font-family="-apple-system, &quot;system-ui&quot;, &quot;Segoe UI&quot;, Roboto, &quot;Noto Sans&quot;, Ubuntu, Cantarell, &quot;Helvetica Neue&quot;, sans-serif" font-size="19.04px" font-weight="400"></rect><rect x="-13" y="7" width="7" height="6" rx="1" fill="#fff8ea" opacity="0.9" stroke="none" stroke-width="1px" fill-opacity="1" stroke-opacity="1" stroke-linecap="butt" stroke-linejoin="miter" font-family="-apple-system, &quot;system-ui&quot;, &quot;Segoe UI&quot;, Roboto, &quot;Noto Sans&quot;, Ubuntu, Cantarell, &quot;Helvetica Neue&quot;, sans-serif" font-size="19.04px" font-weight="400"></rect><rect x="6" y="7" width="7" height="6" rx="1" fill="#fff8ea" opacity="0.9" stroke="none" stroke-width="1px" fill-opacity="1" stroke-opacity="1" stroke-linecap="butt" stroke-linejoin="miter" font-family="-apple-system, &quot;system-ui&quot;, &quot;Segoe UI&quot;, Roboto, &quot;Noto Sans&quot;, Ubuntu, Cantarell, &quot;Helvetica Neue&quot;, sans-serif" font-size="19.04px" font-weight="400"></rect><rect x="17" y="2" width="7" height="6" rx="1" fill="#fff8ea" opacity="0.9" stroke="none" stroke-width="1px" fill-opacity="1" stroke-opacity="1" stroke-linecap="butt" stroke-linejoin="miter" font-family="-apple-system, &quot;system-ui&quot;, &quot;Segoe UI&quot;, Roboto, &quot;Noto Sans&quot;, Ubuntu, Cantarell, &quot;Helvetica Neue&quot;, sans-serif" font-size="19.04px" font-weight="400"></rect><rect x="-8" y="-16" width="16" height="4" rx="1" fill="#53300f" stroke="none" stroke-width="1px" opacity="1" fill-opacity="1" stroke-opacity="1" stroke-linecap="butt" stroke-linejoin="miter" font-family="-apple-system, &quot;system-ui&quot;, &quot;Segoe UI&quot;, Roboto, &quot;Noto Sans&quot;, Ubuntu, Cantarell, &quot;Helvetica Neue&quot;, sans-serif" font-size="19.04px" font-weight="400"></rect><path d="M-33-8L0 7 0 14-33-1Z" fill="#eee0bc"/><path d="M-29-6L-23-3-23 4-29 1M-17 0L-11 3-11 10-17 7M-5 5L0 7 0 14-5 12" fill="#8c6746"/><path d="M-24 7L-12 13-12 23-24 17Z" fill="#f2d999" stroke="#806040" stroke-width="1"/><path d="M7 13L16 9 16 22 7 26Z" fill="#735b41"/><g transform="translate(-3 -30)"><path d="M-9-4H7V4Q-1 12-9 4Z" fill="#fff0cf" stroke="#785639" stroke-width="1.5"/><path d="M7-2Q18-4 11 4H7M-5-8Q-8-12-4-15M2-8Q-1-12 3-15" fill="none" stroke="#785639" stroke-width="1.5"/></g><path d="M-39 16L-31 20-31 34-39 30Z" fill="#605f49" stroke="#a88758"/><path d="M-37 21L-33 23M-37 25L-33 27" stroke="#f3e6c4"/></g></svg>